<?xml version="1.0"?>
<!DOCTYPE svg PUBLIC "-//W3C//DTD SVG 1.1//EN" "http://www.w3.org/Graphics/SVG/1.1/DTD/svg11.dtd">
<svg width="71.1923987512mm" height="58.7460948597mm" viewBox="0 0 71.1923987512 58.7460948597" xmlns="http://www.w3.org/2000/svg" version="1.1">
<g id="Sketch" transform="translate(18.160465,21.232018) scale(1,-1)">
<circle cx="34.925" cy="0.0" r="11.1125" stroke="#000000" stroke-width="0.35 px" style="stroke-width:0.35;stroke-miterlimit:4;stroke-dasharray:none;fill:none"/>
<path id="Sketch_w0001"  d="M 17.4625 -1.80582425396e-12 A 14.2875 14.2875 0 1 1 -11.1125 -2.41017312869e-07 A 46.0375 46.0375 0 0 1 -10.5097309872 -7.42540412192 A 3.175 3.175 0 1 0 -16.7765907468 -8.44959587807 A 52.3875 52.3875 0 0 0 -17.4625 -7.55240314732e-12 A 20.6375 20.6375 0 0 0 5.23875037704 20.5340531954 L 36.6712498722 17.3749681333 A 17.4625 17.4625 0 0 0 52.3339693639 -1.36626934979 L 50.0070212466 -31.0168727842 A 6.35 6.35 0 1 0 38.9173685605 -26.3160963405 A 5.32694123697 5.32694123697 0 0 1 34.9250000226 -17.4625 A 17.4625 17.4625 0 0 0 17.4625 -1.80562022284e-12 " stroke="#000000" stroke-width="0.35 px" style="stroke-width:0.35;stroke-miterlimit:4;stroke-dasharray:none;fill:none;fill-rule: evenodd "/>
<circle cx="43.6764860472" cy="-30.520058846" r="3.175" stroke="#000000" stroke-width="0.35 px" style="stroke-width:0.35;stroke-miterlimit:4;stroke-dasharray:none;fill:none"/>
<title>Sketch</title>
</g>
</svg>